<?xml version="1.0" encoding="utf-8"?>
<svg xmlns="http://www.w3.org/2000/svg" width="300px" height="72px">
<path fill="#FF0D00" d="M41.49,1.09h16.28c10.88,0,16.92,4.42,16.92,13.2v0.23c0,5.93-3.14,9.25-7.5,10.93l9.94,17.21H64.58l-8.43-14.89h-2.79v14.89H41.49V1.09z M57.19,20.04c4.01,0,5.99-1.69,5.99-5.06v-0.23c0-3.37-2.09-4.71-5.93-4.71h-3.9v10H57.19z M1,1.14h18.59c9.85,0,14.04,4.43,14.04,10.89v0.23c0,4.66-2.39,7.75-7.05,8.97c5.13,0.87,8.33,3.96,8.33,9.73v0.23c0,7.46-4.84,11.6-15.15,11.6H1V1.14z M17.2,17.69c3.73,0,5.13-1.28,5.13-4.25V13.2c0-2.86-1.52-4.14-5.13-4.14h-4.55v8.62h4.55V17.69z M17.61,34.82c3.79,0,5.54-1.75,5.54-4.84v-0.23c0-3.15-1.69-4.78-5.89-4.78h-4.6v9.85H17.61z M84.53,42.8h12.06V1.14H84.53V42.8z M104.12,1.12l13.94,20.63l6.88-10.3l-6.47-10.33C118.47,1.12,104.12,1.12,104.12,1.12z M118.47,42.37l6.47-10.33l-6.88-10.3l-13.94,20.63C104.12,42.37,118.47,42.37,118.47,42.37z"/>
<path fill="#FF8200" d="M257.01,1.09h16.28c10.88,0,16.92,4.42,16.92,13.2v0.23c0,5.93-3.14,9.25-7.5,10.93l9.94,17.21H280.1l-8.43-14.89h-2.79v14.89h-11.86V1.09H257.01z M272.71,20.04c4.01,0,5.99-1.69,5.99-5.06v-0.23c0-3.37-2.09-4.71-5.93-4.71h-3.9v10H272.71z M295.64,3.86c0.09,0,0.19,0,0.3,0s0.22-0.01,0.32-0.03s0.19-0.06,0.26-0.11s0.1-0.14,0.1-0.26c0-0.07-0.02-0.13-0.07-0.18c-0.05-0.05-0.1-0.08-0.17-0.11s-0.14-0.04-0.23-0.05c-0.08-0.01-0.16-0.01-0.24-0.01h-0.77v0.74L295.64,3.86L295.64,3.86z M296.98,5.58h-0.49l-0.86-1.32h-0.48v1.32h-0.4V2.71H296c0.13,0,0.26,0.01,0.38,0.03s0.23,0.06,0.33,0.12c0.1,0.06,0.17,0.14,0.23,0.24s0.09,0.22,0.09,0.37c0,0.14-0.02,0.27-0.07,0.36c-0.05,0.1-0.11,0.17-0.19,0.24c-0.08,0.06-0.18,0.11-0.29,0.14c-0.11,0.03-0.23,0.05-0.36,0.05L296.98,5.58z M295.75,6.91c0.37,0,0.73-0.07,1.06-0.21s0.63-0.34,0.88-0.58c0.25-0.25,0.45-0.54,0.6-0.87s0.22-0.69,0.22-1.07s-0.07-0.74-0.22-1.07s-0.34-0.62-0.6-0.87c-0.25-0.25-0.55-0.44-0.88-0.59c-0.33-0.14-0.69-0.21-1.06-0.21s-0.72,0.07-1.06,0.21c-0.33,0.14-0.63,0.34-0.88,0.59s-0.45,0.54-0.6,0.87s-0.22,0.69-0.22,1.07s0.07,0.74,0.22,1.07s0.35,0.62,0.6,0.87s0.54,0.44,0.88,0.58C295.02,6.84,295.38,6.91,295.75,6.91z M295.75,7.41c-0.45,0-0.88-0.08-1.27-0.25c-0.39-0.17-0.74-0.4-1.03-0.69s-0.52-0.63-0.69-1.03s-0.25-0.82-0.25-1.27s0.08-0.87,0.25-1.27s0.4-0.74,0.69-1.03s0.64-0.52,1.03-0.69c0.4-0.17,0.82-0.25,1.27-0.25c0.45,0,0.88,0.08,1.28,0.25s0.74,0.4,1.03,0.69s0.53,0.63,0.69,1.03c0.17,0.4,0.25,0.82,0.25,1.27s-0.08,0.87-0.25,1.27s-0.4,0.74-0.69,1.03s-0.63,0.52-1.03,0.69C296.63,7.32,296.2,7.41,295.75,7.41z M152.65,42.8h10.66V16.87L173.4,42.8h3.96l10.2-25.93V42.8h11.89V1.14h-15.27l-7.98,22.2l-7.98-22.2h-15.56V42.8H152.65z M205.86,22.23v-0.47c0-12.7,9.56-21.21,22.03-21.21c12.7,0,22.08,7.98,22.08,20.92v0.47c0,12.82-8.8,21.56-22.26,21.56C214.25,43.5,205.86,34.76,205.86,22.23z M237.5,22.11v-0.46c0-7.4-3.73-11.77-9.62-11.77s-9.56,4.25-9.56,11.83v0.47c0,7.58,3.85,11.95,9.61,11.95C233.83,34.12,237.5,29.57,237.5,22.11z M131.42,1.12l-6.47,10.33l6.88,10.3l13.94-20.63C145.77,1.12,131.42,1.12,131.42,1.12z M145.76,42.37l-13.94-20.63l-6.88,10.3l6.47,10.33C131.41,42.37,145.76,42.37,145.76,42.37z M152.64,53.93h4.5c3.13,0,5.19,1.39,5.19,4.33c0,3.04-2.13,4.35-5.13,4.35h-1.96v5.33h-2.6L152.64,53.93L152.64,53.93z M157.14,60.73c1.72,0,2.64-0.84,2.64-2.39c0-1.74-0.98-2.39-2.64-2.39h-1.9v4.78H157.14z M164.18,67.94h2.37v-5.33c0-2.17,1.26-2.84,3.33-2.86v-2.21c-1.73,0.02-2.69,0.78-3.33,2.08V57.7h-2.37V67.94z M170.88,62.92v-0.16c0-3.17,2.25-5.29,5.27-5.29c3,0,5.25,2.1,5.25,5.23v0.16c0,3.19-2.25,5.27-5.27,5.27C173.11,68.14,170.88,66.04,170.88,62.92z M178.97,62.88v-0.14c0-2.12-1.06-3.41-2.82-3.41c-1.76,0-2.84,1.27-2.84,3.39v0.16c0,2.1,1.04,3.41,2.84,3.41C177.91,66.29,178.97,64.98,178.97,62.88z M183.34,57.69h2.37v1.64c0.57-0.98,1.84-1.86,3.35-1.86c2.57,0,4.55,1.9,4.55,5.21v0.16c0,3.29-1.9,5.29-4.55,5.29c-1.63,0-2.8-0.8-3.35-1.8v5.11h-2.37V57.69z M191.17,62.88v-0.16c0-2.27-1.17-3.39-2.72-3.39c-1.64,0-2.82,1.12-2.82,3.39v0.16c0,2.29,1.12,3.37,2.84,3.37C190.21,66.25,191.17,65.08,191.17,62.88z M194.86,62.92v-0.16c0-3.17,2.17-5.29,5.09-5.29c2.55,0,4.84,1.51,4.84,5.17v0.69h-7.5c0.08,1.94,1.06,3.04,2.82,3.04c1.43,0,2.17-0.57,2.35-1.57h2.29c-0.33,2.16-2.08,3.33-4.7,3.33C197.03,68.13,194.86,66.16,194.86,62.92z M202.44,61.75c-0.12-1.76-1.02-2.55-2.49-2.55c-1.43,0-2.39,0.96-2.63,2.55H202.44z M206.71,67.94h2.37v-5.33c0-2.17,1.26-2.84,3.33-2.86v-2.21c-1.73,0.02-2.69,0.78-3.33,2.08V57.7h-2.37V67.94z M217.88,68.12c0.73,0,1.23-0.12,1.61-0.26v-1.88c-0.33,0.14-0.69,0.2-1.16,0.2c-0.74,0-1.18-0.41-1.18-1.31v-5.39h2.25V57.7h-2.25v-2.25h-2.37v2.25h-1.37v1.78h1.37v5.6C214.78,67.02,215.84,68.12,217.88,68.12z M222.56,71.44h2.33l5.58-13.75h-2.31l-2.51,6.6l-2.72-6.6h-2.57l4.06,9.21L222.56,71.44z M243.01,68.13c3.96,0,6.39-2.35,6.39-6.23v-1.29h-6.09v1.96h3.53c-0.08,1.94-1.16,3.53-3.78,3.53c-2.94,0-4.33-2.06-4.33-5.06v-0.16c0-3.07,1.59-5.11,4.33-5.11c1.82,0,3.07,0.8,3.39,2.66h2.61c-0.37-3.35-3.04-4.72-6.03-4.72c-4.09,0-6.99,2.98-6.99,7.15v0.16C236.02,65.16,238.53,68.13,243.01,68.13z M251.51,67.94h2.37v-5.33c0-2.17,1.25-2.84,3.33-2.86v-2.21c-1.73,0.02-2.69,0.78-3.33,2.08V57.7h-2.37V67.94z M258.22,62.92v-0.16c0-3.17,2.25-5.29,5.27-5.29c3,0,5.25,2.1,5.25,5.23v0.16c0,3.19-2.25,5.27-5.27,5.27C260.45,68.14,258.22,66.04,258.22,62.92z M266.31,62.88v-0.14c0-2.12-1.06-3.41-2.82-3.41s-2.84,1.27-2.84,3.39v0.16c0,2.1,1.04,3.41,2.84,3.41C265.25,66.29,266.31,64.98,266.31,62.88z M274.1,68.13c1.67,0,2.74-0.8,3.25-1.8v1.6h2.37V57.69h-2.37v6.09c0,1.63-1.12,2.45-2.39,2.45c-1.37,0-2.02-0.71-2.02-2.25v-6.29h-2.37v6.56C270.58,66.98,272.09,68.13,274.1,68.13z M282.33,57.69h2.37v1.64c0.57-0.98,1.84-1.86,3.35-1.86c2.56,0,4.54,1.9,4.54,5.21v0.16c0,3.29-1.9,5.29-4.54,5.29c-1.63,0-2.8-0.8-3.35-1.8v5.11h-2.37V57.69z M290.17,62.88v-0.16c0-2.27-1.18-3.39-2.72-3.39c-1.65,0-2.82,1.12-2.82,3.39v0.16c0,2.29,1.12,3.37,2.84,3.37C289.21,66.25,290.17,65.08,290.17,62.88z"/>
</svg>